<mxfile host="app.diagrams.net" modified="2023-08-06T06:07:32.640Z" agent="Mozilla/5.0 (Windows NT 10.0; Win64; x64) AppleWebKit/537.36 (KHTML, like Gecko) Chrome/115.0.0.0 Safari/537.36 Edg/115.0.1901.188" etag="xLTk7iGqpaaPWduYVE4H" version="21.6.2" type="github" pages="6">
  <diagram name="Home" id="-7YqTUpUbMilJilBJmLc">
    <mxGraphModel dx="1431" dy="807" grid="1" gridSize="10" guides="1" tooltips="1" connect="1" arrows="1" fold="1" page="1" pageScale="1" pageWidth="4681" pageHeight="3300" math="0" shadow="0">
      <root>
        <mxCell id="0" />
        <mxCell id="1" parent="0" />
        <mxCell id="OpYvbCKj8r_eVPy5peh7-1" value="" style="swimlane;startSize=0;" vertex="1" parent="1">
          <mxGeometry x="40" y="40" width="500" height="900" as="geometry">
            <mxRectangle x="40" y="40" width="500" height="900" as="alternateBounds" />
          </mxGeometry>
        </mxCell>
        <mxCell id="xQIchn2WkmY-w4uukqpx-59" value="VENDOR" style="text;html=1;strokeColor=none;fillColor=none;align=left;verticalAlign=middle;whiteSpace=wrap;rounded=0;spacingRight=4;" vertex="1" parent="OpYvbCKj8r_eVPy5peh7-1">
          <mxGeometry x="45" y="850" width="270" height="20" as="geometry" />
        </mxCell>
        <mxCell id="xQIchn2WkmY-w4uukqpx-3" value="ENTER VALUE" style="rounded=0;whiteSpace=wrap;html=1;align=left;spacingLeft=8;" vertex="1" parent="OpYvbCKj8r_eVPy5peh7-1">
          <mxGeometry x="40" y="370" width="280" height="50" as="geometry" />
        </mxCell>
        <mxCell id="xQIchn2WkmY-w4uukqpx-10" value="GRAPH" style="rounded=0;whiteSpace=wrap;html=1;" vertex="1" parent="OpYvbCKj8r_eVPy5peh7-1">
          <mxGeometry x="40" y="40" width="420" height="240" as="geometry" />
        </mxCell>
        <mxCell id="xQIchn2WkmY-w4uukqpx-11" value="ADD" style="rounded=0;whiteSpace=wrap;html=1;" vertex="1" parent="OpYvbCKj8r_eVPy5peh7-1">
          <mxGeometry x="330" y="370" width="70" height="50" as="geometry" />
        </mxCell>
        <mxCell id="xQIchn2WkmY-w4uukqpx-13" value="CAM" style="rounded=0;whiteSpace=wrap;html=1;" vertex="1" parent="OpYvbCKj8r_eVPy5peh7-1">
          <mxGeometry x="410" y="370" width="50" height="50" as="geometry" />
        </mxCell>
        <mxCell id="xQIchn2WkmY-w4uukqpx-14" value="" style="rounded=1;whiteSpace=wrap;html=1;" vertex="1" parent="OpYvbCKj8r_eVPy5peh7-1">
          <mxGeometry x="40" y="450" width="420" height="60" as="geometry" />
        </mxCell>
        <mxCell id="xQIchn2WkmY-w4uukqpx-17" value="LKR #,####.##" style="text;html=1;strokeColor=none;fillColor=none;align=right;verticalAlign=middle;whiteSpace=wrap;rounded=0;spacingRight=4;" vertex="1" parent="OpYvbCKj8r_eVPy5peh7-1">
          <mxGeometry x="330" y="465" width="120" height="30" as="geometry" />
        </mxCell>
        <mxCell id="xQIchn2WkmY-w4uukqpx-18" value="DATE" style="text;html=1;strokeColor=none;fillColor=none;align=left;verticalAlign=middle;whiteSpace=wrap;rounded=0;spacingRight=4;" vertex="1" parent="OpYvbCKj8r_eVPy5peh7-1">
          <mxGeometry x="45" y="460" width="85" height="20" as="geometry" />
        </mxCell>
        <mxCell id="xQIchn2WkmY-w4uukqpx-19" value="VENDOR" style="text;html=1;strokeColor=none;fillColor=none;align=left;verticalAlign=middle;whiteSpace=wrap;rounded=0;spacingRight=4;" vertex="1" parent="OpYvbCKj8r_eVPy5peh7-1">
          <mxGeometry x="45" y="480" width="270" height="20" as="geometry" />
        </mxCell>
        <mxCell id="xQIchn2WkmY-w4uukqpx-30" value="CATEGORY" style="text;html=1;strokeColor=none;fillColor=none;align=left;verticalAlign=middle;whiteSpace=wrap;rounded=0;spacingRight=4;" vertex="1" parent="OpYvbCKj8r_eVPy5peh7-1">
          <mxGeometry x="137.5" y="460" width="85" height="20" as="geometry" />
        </mxCell>
        <mxCell id="xQIchn2WkmY-w4uukqpx-31" value="" style="rounded=1;whiteSpace=wrap;html=1;" vertex="1" parent="OpYvbCKj8r_eVPy5peh7-1">
          <mxGeometry x="40" y="520" width="420" height="60" as="geometry" />
        </mxCell>
        <mxCell id="xQIchn2WkmY-w4uukqpx-32" value="LKR #,####.##" style="text;html=1;strokeColor=none;fillColor=none;align=right;verticalAlign=middle;whiteSpace=wrap;rounded=0;spacingRight=4;" vertex="1" parent="OpYvbCKj8r_eVPy5peh7-1">
          <mxGeometry x="330" y="535" width="120" height="30" as="geometry" />
        </mxCell>
        <mxCell id="xQIchn2WkmY-w4uukqpx-33" value="DATE" style="text;html=1;strokeColor=none;fillColor=none;align=left;verticalAlign=middle;whiteSpace=wrap;rounded=0;spacingRight=4;" vertex="1" parent="OpYvbCKj8r_eVPy5peh7-1">
          <mxGeometry x="45" y="530" width="85" height="20" as="geometry" />
        </mxCell>
        <mxCell id="xQIchn2WkmY-w4uukqpx-34" value="VENDOR" style="text;html=1;strokeColor=none;fillColor=none;align=left;verticalAlign=middle;whiteSpace=wrap;rounded=0;spacingRight=4;" vertex="1" parent="OpYvbCKj8r_eVPy5peh7-1">
          <mxGeometry x="45" y="550" width="270" height="20" as="geometry" />
        </mxCell>
        <mxCell id="xQIchn2WkmY-w4uukqpx-35" value="CATEGORY" style="text;html=1;strokeColor=none;fillColor=none;align=left;verticalAlign=middle;whiteSpace=wrap;rounded=0;spacingRight=4;" vertex="1" parent="OpYvbCKj8r_eVPy5peh7-1">
          <mxGeometry x="137.5" y="530" width="85" height="20" as="geometry" />
        </mxCell>
        <mxCell id="xQIchn2WkmY-w4uukqpx-36" value="" style="rounded=1;whiteSpace=wrap;html=1;" vertex="1" parent="OpYvbCKj8r_eVPy5peh7-1">
          <mxGeometry x="40" y="590" width="420" height="60" as="geometry" />
        </mxCell>
        <mxCell id="xQIchn2WkmY-w4uukqpx-37" value="LKR #,####.##" style="text;html=1;strokeColor=none;fillColor=none;align=right;verticalAlign=middle;whiteSpace=wrap;rounded=0;spacingRight=4;" vertex="1" parent="OpYvbCKj8r_eVPy5peh7-1">
          <mxGeometry x="330" y="605" width="120" height="30" as="geometry" />
        </mxCell>
        <mxCell id="xQIchn2WkmY-w4uukqpx-38" value="DATE" style="text;html=1;strokeColor=none;fillColor=none;align=left;verticalAlign=middle;whiteSpace=wrap;rounded=0;spacingRight=4;" vertex="1" parent="OpYvbCKj8r_eVPy5peh7-1">
          <mxGeometry x="45" y="600" width="85" height="20" as="geometry" />
        </mxCell>
        <mxCell id="xQIchn2WkmY-w4uukqpx-39" value="VENDOR" style="text;html=1;strokeColor=none;fillColor=none;align=left;verticalAlign=middle;whiteSpace=wrap;rounded=0;spacingRight=4;" vertex="1" parent="OpYvbCKj8r_eVPy5peh7-1">
          <mxGeometry x="45" y="620" width="270" height="20" as="geometry" />
        </mxCell>
        <mxCell id="xQIchn2WkmY-w4uukqpx-40" value="CATEGORY" style="text;html=1;strokeColor=none;fillColor=none;align=left;verticalAlign=middle;whiteSpace=wrap;rounded=0;spacingRight=4;" vertex="1" parent="OpYvbCKj8r_eVPy5peh7-1">
          <mxGeometry x="137.5" y="600" width="85" height="20" as="geometry" />
        </mxCell>
        <mxCell id="xQIchn2WkmY-w4uukqpx-41" value="" style="rounded=1;whiteSpace=wrap;html=1;" vertex="1" parent="OpYvbCKj8r_eVPy5peh7-1">
          <mxGeometry x="40" y="660" width="420" height="60" as="geometry" />
        </mxCell>
        <mxCell id="xQIchn2WkmY-w4uukqpx-42" value="LKR #,####.##" style="text;html=1;strokeColor=none;fillColor=none;align=right;verticalAlign=middle;whiteSpace=wrap;rounded=0;spacingRight=4;" vertex="1" parent="OpYvbCKj8r_eVPy5peh7-1">
          <mxGeometry x="330" y="675" width="120" height="30" as="geometry" />
        </mxCell>
        <mxCell id="xQIchn2WkmY-w4uukqpx-43" value="DATE" style="text;html=1;strokeColor=none;fillColor=none;align=left;verticalAlign=middle;whiteSpace=wrap;rounded=0;spacingRight=4;" vertex="1" parent="OpYvbCKj8r_eVPy5peh7-1">
          <mxGeometry x="45" y="670" width="85" height="20" as="geometry" />
        </mxCell>
        <mxCell id="xQIchn2WkmY-w4uukqpx-44" value="VENDOR" style="text;html=1;strokeColor=none;fillColor=none;align=left;verticalAlign=middle;whiteSpace=wrap;rounded=0;spacingRight=4;" vertex="1" parent="OpYvbCKj8r_eVPy5peh7-1">
          <mxGeometry x="45" y="690" width="270" height="20" as="geometry" />
        </mxCell>
        <mxCell id="xQIchn2WkmY-w4uukqpx-45" value="CATEGORY" style="text;html=1;strokeColor=none;fillColor=none;align=left;verticalAlign=middle;whiteSpace=wrap;rounded=0;spacingRight=4;" vertex="1" parent="OpYvbCKj8r_eVPy5peh7-1">
          <mxGeometry x="137.5" y="670" width="85" height="20" as="geometry" />
        </mxCell>
        <mxCell id="xQIchn2WkmY-w4uukqpx-46" value="" style="rounded=1;whiteSpace=wrap;html=1;" vertex="1" parent="OpYvbCKj8r_eVPy5peh7-1">
          <mxGeometry x="40" y="730" width="420" height="60" as="geometry" />
        </mxCell>
        <mxCell id="xQIchn2WkmY-w4uukqpx-47" value="LKR #,####.##" style="text;html=1;strokeColor=none;fillColor=none;align=right;verticalAlign=middle;whiteSpace=wrap;rounded=0;spacingRight=4;" vertex="1" parent="OpYvbCKj8r_eVPy5peh7-1">
          <mxGeometry x="330" y="745" width="120" height="30" as="geometry" />
        </mxCell>
        <mxCell id="xQIchn2WkmY-w4uukqpx-48" value="DATE" style="text;html=1;strokeColor=none;fillColor=none;align=left;verticalAlign=middle;whiteSpace=wrap;rounded=0;spacingRight=4;" vertex="1" parent="OpYvbCKj8r_eVPy5peh7-1">
          <mxGeometry x="45" y="740" width="85" height="20" as="geometry" />
        </mxCell>
        <mxCell id="xQIchn2WkmY-w4uukqpx-49" value="VENDOR" style="text;html=1;strokeColor=none;fillColor=none;align=left;verticalAlign=middle;whiteSpace=wrap;rounded=0;spacingRight=4;" vertex="1" parent="OpYvbCKj8r_eVPy5peh7-1">
          <mxGeometry x="45" y="760" width="270" height="20" as="geometry" />
        </mxCell>
        <mxCell id="xQIchn2WkmY-w4uukqpx-50" value="CATEGORY" style="text;html=1;strokeColor=none;fillColor=none;align=left;verticalAlign=middle;whiteSpace=wrap;rounded=0;spacingRight=4;" vertex="1" parent="OpYvbCKj8r_eVPy5peh7-1">
          <mxGeometry x="137.5" y="740" width="85" height="20" as="geometry" />
        </mxCell>
        <mxCell id="xQIchn2WkmY-w4uukqpx-51" value="" style="rounded=1;whiteSpace=wrap;html=1;" vertex="1" parent="OpYvbCKj8r_eVPy5peh7-1">
          <mxGeometry x="40" y="800" width="420" height="60" as="geometry" />
        </mxCell>
        <mxCell id="xQIchn2WkmY-w4uukqpx-52" value="LKR #,####.##" style="text;html=1;strokeColor=none;fillColor=none;align=right;verticalAlign=middle;whiteSpace=wrap;rounded=0;spacingRight=4;" vertex="1" parent="OpYvbCKj8r_eVPy5peh7-1">
          <mxGeometry x="330" y="815" width="120" height="30" as="geometry" />
        </mxCell>
        <mxCell id="xQIchn2WkmY-w4uukqpx-53" value="DATE" style="text;html=1;strokeColor=none;fillColor=none;align=left;verticalAlign=middle;whiteSpace=wrap;rounded=0;spacingRight=4;" vertex="1" parent="OpYvbCKj8r_eVPy5peh7-1">
          <mxGeometry x="45" y="810" width="85" height="20" as="geometry" />
        </mxCell>
        <mxCell id="xQIchn2WkmY-w4uukqpx-54" value="VENDOR" style="text;html=1;strokeColor=none;fillColor=none;align=left;verticalAlign=middle;whiteSpace=wrap;rounded=0;spacingRight=4;" vertex="1" parent="OpYvbCKj8r_eVPy5peh7-1">
          <mxGeometry x="45" y="830" width="270" height="20" as="geometry" />
        </mxCell>
        <mxCell id="xQIchn2WkmY-w4uukqpx-55" value="CATEGORY" style="text;html=1;strokeColor=none;fillColor=none;align=left;verticalAlign=middle;whiteSpace=wrap;rounded=0;spacingRight=4;" vertex="1" parent="OpYvbCKj8r_eVPy5peh7-1">
          <mxGeometry x="137.5" y="810" width="85" height="20" as="geometry" />
        </mxCell>
        <mxCell id="OpYvbCKj8r_eVPy5peh7-4" value="MENU" style="whiteSpace=wrap;html=1;" vertex="1" parent="OpYvbCKj8r_eVPy5peh7-1">
          <mxGeometry y="840" width="500" height="60" as="geometry" />
        </mxCell>
        <mxCell id="xQIchn2WkmY-w4uukqpx-63" value="CATEGORY" style="rounded=0;whiteSpace=wrap;html=1;align=left;spacingLeft=8;" vertex="1" parent="OpYvbCKj8r_eVPy5peh7-1">
          <mxGeometry x="230" y="310" width="230" height="50" as="geometry" />
        </mxCell>
        <mxCell id="xQIchn2WkmY-w4uukqpx-64" value="" style="triangle;whiteSpace=wrap;html=1;rotation=90;" vertex="1" parent="OpYvbCKj8r_eVPy5peh7-1">
          <mxGeometry x="425.63" y="322.5" width="18.75" height="25" as="geometry" />
        </mxCell>
        <mxCell id="xQIchn2WkmY-w4uukqpx-70" value="DATE" style="rounded=0;whiteSpace=wrap;html=1;align=left;spacingLeft=8;" vertex="1" parent="OpYvbCKj8r_eVPy5peh7-1">
          <mxGeometry x="40" y="310" width="180" height="50" as="geometry" />
        </mxCell>
        <mxCell id="xQIchn2WkmY-w4uukqpx-71" value="" style="triangle;whiteSpace=wrap;html=1;rotation=90;" vertex="1" parent="OpYvbCKj8r_eVPy5peh7-1">
          <mxGeometry x="190" y="322.5" width="18.75" height="25" as="geometry" />
        </mxCell>
        <mxCell id="QuzubPmWZXeC0UzukjIj-1" value="" style="ellipse;whiteSpace=wrap;html=1;aspect=fixed;" vertex="1" parent="1">
          <mxGeometry x="60" y="890" width="40" height="40" as="geometry" />
        </mxCell>
      </root>
    </mxGraphModel>
  </diagram>
  <diagram id="5BtKKe4hTj2yAUqYr5QW" name="Menu">
    <mxGraphModel dx="1002" dy="565" grid="1" gridSize="10" guides="1" tooltips="1" connect="1" arrows="1" fold="1" page="1" pageScale="1" pageWidth="4681" pageHeight="3300" math="0" shadow="0">
      <root>
        <mxCell id="0" />
        <mxCell id="1" parent="0" />
        <mxCell id="p6cj2IzEMIHR3dmzp68Q-1" value="" style="whiteSpace=wrap;html=1;" vertex="1" parent="1">
          <mxGeometry x="40" y="880" width="500" height="60" as="geometry" />
        </mxCell>
        <mxCell id="p6cj2IzEMIHR3dmzp68Q-2" value="" style="ellipse;whiteSpace=wrap;html=1;aspect=fixed;" vertex="1" parent="1">
          <mxGeometry x="270" y="890" width="40" height="40" as="geometry" />
        </mxCell>
        <mxCell id="p6cj2IzEMIHR3dmzp68Q-3" value="" style="ellipse;whiteSpace=wrap;html=1;aspect=fixed;" vertex="1" parent="1">
          <mxGeometry x="60" y="890" width="40" height="40" as="geometry" />
        </mxCell>
        <mxCell id="p6cj2IzEMIHR3dmzp68Q-4" value="" style="ellipse;whiteSpace=wrap;html=1;aspect=fixed;" vertex="1" parent="1">
          <mxGeometry x="165" y="890" width="40" height="40" as="geometry" />
        </mxCell>
        <mxCell id="p6cj2IzEMIHR3dmzp68Q-5" value="" style="ellipse;whiteSpace=wrap;html=1;aspect=fixed;" vertex="1" parent="1">
          <mxGeometry x="375" y="890" width="40" height="40" as="geometry" />
        </mxCell>
        <mxCell id="p6cj2IzEMIHR3dmzp68Q-6" value="" style="ellipse;whiteSpace=wrap;html=1;aspect=fixed;" vertex="1" parent="1">
          <mxGeometry x="480" y="890" width="40" height="40" as="geometry" />
        </mxCell>
        <mxCell id="p6cj2IzEMIHR3dmzp68Q-8" style="edgeStyle=orthogonalEdgeStyle;rounded=0;orthogonalLoop=1;jettySize=auto;html=1;entryX=0.5;entryY=0;entryDx=0;entryDy=0;" edge="1" parent="1" source="p6cj2IzEMIHR3dmzp68Q-7" target="p6cj2IzEMIHR3dmzp68Q-2">
          <mxGeometry relative="1" as="geometry" />
        </mxCell>
        <mxCell id="p6cj2IzEMIHR3dmzp68Q-7" value="Add / Manage Transactions" style="rounded=0;whiteSpace=wrap;html=1;" vertex="1" parent="1">
          <mxGeometry x="230" y="690" width="120" height="60" as="geometry" />
        </mxCell>
        <mxCell id="p6cj2IzEMIHR3dmzp68Q-10" style="edgeStyle=orthogonalEdgeStyle;rounded=0;orthogonalLoop=1;jettySize=auto;html=1;entryX=0.5;entryY=0;entryDx=0;entryDy=0;" edge="1" parent="1" source="p6cj2IzEMIHR3dmzp68Q-9" target="p6cj2IzEMIHR3dmzp68Q-6">
          <mxGeometry relative="1" as="geometry" />
        </mxCell>
        <mxCell id="p6cj2IzEMIHR3dmzp68Q-9" value="Settings" style="rounded=0;whiteSpace=wrap;html=1;" vertex="1" parent="1">
          <mxGeometry x="420" y="760" width="120" height="60" as="geometry" />
        </mxCell>
        <mxCell id="p6cj2IzEMIHR3dmzp68Q-12" style="edgeStyle=orthogonalEdgeStyle;rounded=0;orthogonalLoop=1;jettySize=auto;html=1;" edge="1" parent="1" source="p6cj2IzEMIHR3dmzp68Q-11" target="p6cj2IzEMIHR3dmzp68Q-3">
          <mxGeometry relative="1" as="geometry" />
        </mxCell>
        <mxCell id="p6cj2IzEMIHR3dmzp68Q-11" value="Home Screen" style="rounded=0;whiteSpace=wrap;html=1;" vertex="1" parent="1">
          <mxGeometry x="40" y="760" width="120" height="60" as="geometry" />
        </mxCell>
        <mxCell id="p6cj2IzEMIHR3dmzp68Q-14" style="edgeStyle=orthogonalEdgeStyle;rounded=0;orthogonalLoop=1;jettySize=auto;html=1;exitX=1;exitY=0.5;exitDx=0;exitDy=0;entryX=0.5;entryY=0;entryDx=0;entryDy=0;" edge="1" parent="1" source="p6cj2IzEMIHR3dmzp68Q-13" target="p6cj2IzEMIHR3dmzp68Q-4">
          <mxGeometry relative="1" as="geometry" />
        </mxCell>
        <mxCell id="p6cj2IzEMIHR3dmzp68Q-13" value="Budget Screen" style="rounded=0;whiteSpace=wrap;html=1;" vertex="1" parent="1">
          <mxGeometry x="40" y="660" width="120" height="60" as="geometry" />
        </mxCell>
        <mxCell id="p6cj2IzEMIHR3dmzp68Q-16" style="edgeStyle=orthogonalEdgeStyle;rounded=0;orthogonalLoop=1;jettySize=auto;html=1;entryX=0.5;entryY=0;entryDx=0;entryDy=0;exitX=0;exitY=0.5;exitDx=0;exitDy=0;" edge="1" parent="1" source="p6cj2IzEMIHR3dmzp68Q-15" target="p6cj2IzEMIHR3dmzp68Q-5">
          <mxGeometry relative="1" as="geometry" />
        </mxCell>
        <mxCell id="p6cj2IzEMIHR3dmzp68Q-15" value="Time Based (Loans and Investments)" style="rounded=0;whiteSpace=wrap;html=1;" vertex="1" parent="1">
          <mxGeometry x="420" y="660" width="120" height="60" as="geometry" />
        </mxCell>
      </root>
    </mxGraphModel>
  </diagram>
  <diagram id="X0qVoZHdEJwoB1DHD95K" name="Budget">
    <mxGraphModel dx="2004" dy="1130" grid="1" gridSize="10" guides="1" tooltips="1" connect="1" arrows="1" fold="1" page="1" pageScale="1" pageWidth="4681" pageHeight="3300" math="0" shadow="0">
      <root>
        <mxCell id="0" />
        <mxCell id="1" parent="0" />
        <mxCell id="bjgMW3xffvHybnKfpCEv-1" value="" style="swimlane;startSize=0;" vertex="1" parent="1">
          <mxGeometry x="40" y="40" width="500" height="900" as="geometry">
            <mxRectangle x="40" y="40" width="500" height="900" as="alternateBounds" />
          </mxGeometry>
        </mxCell>
        <mxCell id="bjgMW3xffvHybnKfpCEv-2" value="" style="rounded=0;whiteSpace=wrap;html=1;" vertex="1" parent="bjgMW3xffvHybnKfpCEv-1">
          <mxGeometry y="840" width="120" height="60" as="geometry" />
        </mxCell>
        <mxCell id="bjgMW3xffvHybnKfpCEv-3" value="" style="rounded=0;whiteSpace=wrap;html=1;" vertex="1" parent="bjgMW3xffvHybnKfpCEv-1">
          <mxGeometry y="840" width="120" height="60" as="geometry" />
        </mxCell>
        <mxCell id="Lkf4W2bLdQkOcS0r8LdT-1" value="+" style="ellipse;whiteSpace=wrap;html=1;aspect=fixed;fillColor=#d5e8d4;strokeColor=#82b366;" vertex="1" parent="bjgMW3xffvHybnKfpCEv-1">
          <mxGeometry x="430" y="770" width="50" height="50" as="geometry" />
        </mxCell>
        <mxCell id="bjgMW3xffvHybnKfpCEv-4" value="MENU" style="whiteSpace=wrap;html=1;" vertex="1" parent="1">
          <mxGeometry x="40" y="880" width="500" height="60" as="geometry" />
        </mxCell>
        <mxCell id="pmXVu8uzVACmn47cuU6T-1" value="" style="ellipse;whiteSpace=wrap;html=1;aspect=fixed;" vertex="1" parent="1">
          <mxGeometry x="165" y="890" width="40" height="40" as="geometry" />
        </mxCell>
      </root>
    </mxGraphModel>
  </diagram>
  <diagram id="DU8VR_UUWeB6As3rMWlz" name="Transactions">
    <mxGraphModel dx="1670" dy="942" grid="1" gridSize="10" guides="1" tooltips="1" connect="1" arrows="1" fold="1" page="1" pageScale="1" pageWidth="4681" pageHeight="3300" math="0" shadow="0">
      <root>
        <mxCell id="0" />
        <mxCell id="1" parent="0" />
        <mxCell id="Pg-9uKjvfXgRgvPHWc_q-1" value="" style="swimlane;startSize=0;" vertex="1" parent="1">
          <mxGeometry x="40" y="40" width="500" height="900" as="geometry">
            <mxRectangle x="40" y="40" width="500" height="900" as="alternateBounds" />
          </mxGeometry>
        </mxCell>
        <mxCell id="EKoWF9jizVSwzyr8S2gG-1" value="" style="rounded=1;whiteSpace=wrap;html=1;" vertex="1" parent="Pg-9uKjvfXgRgvPHWc_q-1">
          <mxGeometry x="40" y="30" width="420" height="60" as="geometry" />
        </mxCell>
        <mxCell id="EKoWF9jizVSwzyr8S2gG-2" value="LKR #,####.##" style="text;html=1;strokeColor=none;fillColor=none;align=right;verticalAlign=middle;whiteSpace=wrap;rounded=0;spacingRight=4;" vertex="1" parent="Pg-9uKjvfXgRgvPHWc_q-1">
          <mxGeometry x="330" y="45" width="120" height="30" as="geometry" />
        </mxCell>
        <mxCell id="EKoWF9jizVSwzyr8S2gG-3" value="DATE" style="text;html=1;strokeColor=none;fillColor=none;align=left;verticalAlign=middle;whiteSpace=wrap;rounded=0;spacingRight=4;" vertex="1" parent="Pg-9uKjvfXgRgvPHWc_q-1">
          <mxGeometry x="45" y="40" width="85" height="20" as="geometry" />
        </mxCell>
        <mxCell id="EKoWF9jizVSwzyr8S2gG-4" value="VENDOR" style="text;html=1;strokeColor=none;fillColor=none;align=left;verticalAlign=middle;whiteSpace=wrap;rounded=0;spacingRight=4;" vertex="1" parent="Pg-9uKjvfXgRgvPHWc_q-1">
          <mxGeometry x="45" y="60" width="270" height="20" as="geometry" />
        </mxCell>
        <mxCell id="EKoWF9jizVSwzyr8S2gG-5" value="CATEGORY" style="text;html=1;strokeColor=none;fillColor=none;align=left;verticalAlign=middle;whiteSpace=wrap;rounded=0;spacingRight=4;" vertex="1" parent="Pg-9uKjvfXgRgvPHWc_q-1">
          <mxGeometry x="137.5" y="40" width="85" height="20" as="geometry" />
        </mxCell>
        <mxCell id="EKoWF9jizVSwzyr8S2gG-6" value="" style="rounded=1;whiteSpace=wrap;html=1;" vertex="1" parent="Pg-9uKjvfXgRgvPHWc_q-1">
          <mxGeometry x="40" y="100" width="420" height="60" as="geometry" />
        </mxCell>
        <mxCell id="EKoWF9jizVSwzyr8S2gG-7" value="LKR #,####.##" style="text;html=1;strokeColor=none;fillColor=none;align=right;verticalAlign=middle;whiteSpace=wrap;rounded=0;spacingRight=4;" vertex="1" parent="Pg-9uKjvfXgRgvPHWc_q-1">
          <mxGeometry x="330" y="115" width="120" height="30" as="geometry" />
        </mxCell>
        <mxCell id="EKoWF9jizVSwzyr8S2gG-8" value="DATE" style="text;html=1;strokeColor=none;fillColor=none;align=left;verticalAlign=middle;whiteSpace=wrap;rounded=0;spacingRight=4;" vertex="1" parent="Pg-9uKjvfXgRgvPHWc_q-1">
          <mxGeometry x="45" y="110" width="85" height="20" as="geometry" />
        </mxCell>
        <mxCell id="EKoWF9jizVSwzyr8S2gG-9" value="VENDOR" style="text;html=1;strokeColor=none;fillColor=none;align=left;verticalAlign=middle;whiteSpace=wrap;rounded=0;spacingRight=4;" vertex="1" parent="Pg-9uKjvfXgRgvPHWc_q-1">
          <mxGeometry x="45" y="130" width="270" height="20" as="geometry" />
        </mxCell>
        <mxCell id="EKoWF9jizVSwzyr8S2gG-10" value="CATEGORY" style="text;html=1;strokeColor=none;fillColor=none;align=left;verticalAlign=middle;whiteSpace=wrap;rounded=0;spacingRight=4;" vertex="1" parent="Pg-9uKjvfXgRgvPHWc_q-1">
          <mxGeometry x="137.5" y="110" width="85" height="20" as="geometry" />
        </mxCell>
        <mxCell id="EKoWF9jizVSwzyr8S2gG-11" value="" style="rounded=1;whiteSpace=wrap;html=1;" vertex="1" parent="Pg-9uKjvfXgRgvPHWc_q-1">
          <mxGeometry x="40" y="170" width="420" height="60" as="geometry" />
        </mxCell>
        <mxCell id="EKoWF9jizVSwzyr8S2gG-12" value="LKR #,####.##" style="text;html=1;strokeColor=none;fillColor=none;align=right;verticalAlign=middle;whiteSpace=wrap;rounded=0;spacingRight=4;" vertex="1" parent="Pg-9uKjvfXgRgvPHWc_q-1">
          <mxGeometry x="330" y="185" width="120" height="30" as="geometry" />
        </mxCell>
        <mxCell id="EKoWF9jizVSwzyr8S2gG-13" value="DATE" style="text;html=1;strokeColor=none;fillColor=none;align=left;verticalAlign=middle;whiteSpace=wrap;rounded=0;spacingRight=4;" vertex="1" parent="Pg-9uKjvfXgRgvPHWc_q-1">
          <mxGeometry x="45" y="180" width="85" height="20" as="geometry" />
        </mxCell>
        <mxCell id="EKoWF9jizVSwzyr8S2gG-14" value="VENDOR" style="text;html=1;strokeColor=none;fillColor=none;align=left;verticalAlign=middle;whiteSpace=wrap;rounded=0;spacingRight=4;" vertex="1" parent="Pg-9uKjvfXgRgvPHWc_q-1">
          <mxGeometry x="45" y="200" width="270" height="20" as="geometry" />
        </mxCell>
        <mxCell id="EKoWF9jizVSwzyr8S2gG-15" value="CATEGORY" style="text;html=1;strokeColor=none;fillColor=none;align=left;verticalAlign=middle;whiteSpace=wrap;rounded=0;spacingRight=4;" vertex="1" parent="Pg-9uKjvfXgRgvPHWc_q-1">
          <mxGeometry x="137.5" y="180" width="85" height="20" as="geometry" />
        </mxCell>
        <mxCell id="EKoWF9jizVSwzyr8S2gG-16" value="" style="rounded=1;whiteSpace=wrap;html=1;" vertex="1" parent="Pg-9uKjvfXgRgvPHWc_q-1">
          <mxGeometry x="40" y="240" width="420" height="60" as="geometry" />
        </mxCell>
        <mxCell id="EKoWF9jizVSwzyr8S2gG-17" value="LKR #,####.##" style="text;html=1;strokeColor=none;fillColor=none;align=right;verticalAlign=middle;whiteSpace=wrap;rounded=0;spacingRight=4;" vertex="1" parent="Pg-9uKjvfXgRgvPHWc_q-1">
          <mxGeometry x="330" y="255" width="120" height="30" as="geometry" />
        </mxCell>
        <mxCell id="EKoWF9jizVSwzyr8S2gG-18" value="DATE" style="text;html=1;strokeColor=none;fillColor=none;align=left;verticalAlign=middle;whiteSpace=wrap;rounded=0;spacingRight=4;" vertex="1" parent="Pg-9uKjvfXgRgvPHWc_q-1">
          <mxGeometry x="45" y="250" width="85" height="20" as="geometry" />
        </mxCell>
        <mxCell id="EKoWF9jizVSwzyr8S2gG-19" value="VENDOR" style="text;html=1;strokeColor=none;fillColor=none;align=left;verticalAlign=middle;whiteSpace=wrap;rounded=0;spacingRight=4;" vertex="1" parent="Pg-9uKjvfXgRgvPHWc_q-1">
          <mxGeometry x="45" y="270" width="270" height="20" as="geometry" />
        </mxCell>
        <mxCell id="EKoWF9jizVSwzyr8S2gG-20" value="CATEGORY" style="text;html=1;strokeColor=none;fillColor=none;align=left;verticalAlign=middle;whiteSpace=wrap;rounded=0;spacingRight=4;" vertex="1" parent="Pg-9uKjvfXgRgvPHWc_q-1">
          <mxGeometry x="137.5" y="250" width="85" height="20" as="geometry" />
        </mxCell>
        <mxCell id="EKoWF9jizVSwzyr8S2gG-21" value="" style="rounded=1;whiteSpace=wrap;html=1;" vertex="1" parent="Pg-9uKjvfXgRgvPHWc_q-1">
          <mxGeometry x="40" y="310" width="420" height="60" as="geometry" />
        </mxCell>
        <mxCell id="EKoWF9jizVSwzyr8S2gG-22" value="LKR #,####.##" style="text;html=1;strokeColor=none;fillColor=none;align=right;verticalAlign=middle;whiteSpace=wrap;rounded=0;spacingRight=4;" vertex="1" parent="Pg-9uKjvfXgRgvPHWc_q-1">
          <mxGeometry x="330" y="325" width="120" height="30" as="geometry" />
        </mxCell>
        <mxCell id="EKoWF9jizVSwzyr8S2gG-23" value="DATE" style="text;html=1;strokeColor=none;fillColor=none;align=left;verticalAlign=middle;whiteSpace=wrap;rounded=0;spacingRight=4;" vertex="1" parent="Pg-9uKjvfXgRgvPHWc_q-1">
          <mxGeometry x="45" y="320" width="85" height="20" as="geometry" />
        </mxCell>
        <mxCell id="EKoWF9jizVSwzyr8S2gG-24" value="VENDOR" style="text;html=1;strokeColor=none;fillColor=none;align=left;verticalAlign=middle;whiteSpace=wrap;rounded=0;spacingRight=4;" vertex="1" parent="Pg-9uKjvfXgRgvPHWc_q-1">
          <mxGeometry x="45" y="340" width="270" height="20" as="geometry" />
        </mxCell>
        <mxCell id="EKoWF9jizVSwzyr8S2gG-25" value="CATEGORY" style="text;html=1;strokeColor=none;fillColor=none;align=left;verticalAlign=middle;whiteSpace=wrap;rounded=0;spacingRight=4;" vertex="1" parent="Pg-9uKjvfXgRgvPHWc_q-1">
          <mxGeometry x="137.5" y="320" width="85" height="20" as="geometry" />
        </mxCell>
        <mxCell id="EKoWF9jizVSwzyr8S2gG-26" value="" style="rounded=1;whiteSpace=wrap;html=1;" vertex="1" parent="Pg-9uKjvfXgRgvPHWc_q-1">
          <mxGeometry x="40" y="380" width="420" height="60" as="geometry" />
        </mxCell>
        <mxCell id="EKoWF9jizVSwzyr8S2gG-27" value="LKR #,####.##" style="text;html=1;strokeColor=none;fillColor=none;align=right;verticalAlign=middle;whiteSpace=wrap;rounded=0;spacingRight=4;" vertex="1" parent="Pg-9uKjvfXgRgvPHWc_q-1">
          <mxGeometry x="330" y="395" width="120" height="30" as="geometry" />
        </mxCell>
        <mxCell id="EKoWF9jizVSwzyr8S2gG-28" value="DATE" style="text;html=1;strokeColor=none;fillColor=none;align=left;verticalAlign=middle;whiteSpace=wrap;rounded=0;spacingRight=4;" vertex="1" parent="Pg-9uKjvfXgRgvPHWc_q-1">
          <mxGeometry x="45" y="390" width="85" height="20" as="geometry" />
        </mxCell>
        <mxCell id="EKoWF9jizVSwzyr8S2gG-29" value="VENDOR" style="text;html=1;strokeColor=none;fillColor=none;align=left;verticalAlign=middle;whiteSpace=wrap;rounded=0;spacingRight=4;" vertex="1" parent="Pg-9uKjvfXgRgvPHWc_q-1">
          <mxGeometry x="45" y="410" width="270" height="20" as="geometry" />
        </mxCell>
        <mxCell id="EKoWF9jizVSwzyr8S2gG-30" value="CATEGORY" style="text;html=1;strokeColor=none;fillColor=none;align=left;verticalAlign=middle;whiteSpace=wrap;rounded=0;spacingRight=4;" vertex="1" parent="Pg-9uKjvfXgRgvPHWc_q-1">
          <mxGeometry x="137.5" y="390" width="85" height="20" as="geometry" />
        </mxCell>
        <mxCell id="EKoWF9jizVSwzyr8S2gG-31" value="" style="rounded=1;whiteSpace=wrap;html=1;" vertex="1" parent="Pg-9uKjvfXgRgvPHWc_q-1">
          <mxGeometry x="40" y="450" width="420" height="60" as="geometry" />
        </mxCell>
        <mxCell id="EKoWF9jizVSwzyr8S2gG-32" value="LKR #,####.##" style="text;html=1;strokeColor=none;fillColor=none;align=right;verticalAlign=middle;whiteSpace=wrap;rounded=0;spacingRight=4;" vertex="1" parent="Pg-9uKjvfXgRgvPHWc_q-1">
          <mxGeometry x="330" y="465" width="120" height="30" as="geometry" />
        </mxCell>
        <mxCell id="EKoWF9jizVSwzyr8S2gG-33" value="DATE" style="text;html=1;strokeColor=none;fillColor=none;align=left;verticalAlign=middle;whiteSpace=wrap;rounded=0;spacingRight=4;" vertex="1" parent="Pg-9uKjvfXgRgvPHWc_q-1">
          <mxGeometry x="45" y="460" width="85" height="20" as="geometry" />
        </mxCell>
        <mxCell id="EKoWF9jizVSwzyr8S2gG-34" value="VENDOR" style="text;html=1;strokeColor=none;fillColor=none;align=left;verticalAlign=middle;whiteSpace=wrap;rounded=0;spacingRight=4;" vertex="1" parent="Pg-9uKjvfXgRgvPHWc_q-1">
          <mxGeometry x="45" y="480" width="270" height="20" as="geometry" />
        </mxCell>
        <mxCell id="EKoWF9jizVSwzyr8S2gG-35" value="CATEGORY" style="text;html=1;strokeColor=none;fillColor=none;align=left;verticalAlign=middle;whiteSpace=wrap;rounded=0;spacingRight=4;" vertex="1" parent="Pg-9uKjvfXgRgvPHWc_q-1">
          <mxGeometry x="137.5" y="460" width="85" height="20" as="geometry" />
        </mxCell>
        <mxCell id="EKoWF9jizVSwzyr8S2gG-36" value="" style="rounded=1;whiteSpace=wrap;html=1;" vertex="1" parent="Pg-9uKjvfXgRgvPHWc_q-1">
          <mxGeometry x="40" y="520" width="420" height="60" as="geometry" />
        </mxCell>
        <mxCell id="EKoWF9jizVSwzyr8S2gG-37" value="LKR #,####.##" style="text;html=1;strokeColor=none;fillColor=none;align=right;verticalAlign=middle;whiteSpace=wrap;rounded=0;spacingRight=4;" vertex="1" parent="Pg-9uKjvfXgRgvPHWc_q-1">
          <mxGeometry x="330" y="535" width="120" height="30" as="geometry" />
        </mxCell>
        <mxCell id="EKoWF9jizVSwzyr8S2gG-38" value="DATE" style="text;html=1;strokeColor=none;fillColor=none;align=left;verticalAlign=middle;whiteSpace=wrap;rounded=0;spacingRight=4;" vertex="1" parent="Pg-9uKjvfXgRgvPHWc_q-1">
          <mxGeometry x="45" y="530" width="85" height="20" as="geometry" />
        </mxCell>
        <mxCell id="EKoWF9jizVSwzyr8S2gG-39" value="VENDOR" style="text;html=1;strokeColor=none;fillColor=none;align=left;verticalAlign=middle;whiteSpace=wrap;rounded=0;spacingRight=4;" vertex="1" parent="Pg-9uKjvfXgRgvPHWc_q-1">
          <mxGeometry x="45" y="550" width="270" height="20" as="geometry" />
        </mxCell>
        <mxCell id="EKoWF9jizVSwzyr8S2gG-40" value="CATEGORY" style="text;html=1;strokeColor=none;fillColor=none;align=left;verticalAlign=middle;whiteSpace=wrap;rounded=0;spacingRight=4;" vertex="1" parent="Pg-9uKjvfXgRgvPHWc_q-1">
          <mxGeometry x="137.5" y="530" width="85" height="20" as="geometry" />
        </mxCell>
        <mxCell id="EKoWF9jizVSwzyr8S2gG-41" value="" style="rounded=1;whiteSpace=wrap;html=1;" vertex="1" parent="Pg-9uKjvfXgRgvPHWc_q-1">
          <mxGeometry x="40" y="590" width="420" height="60" as="geometry" />
        </mxCell>
        <mxCell id="EKoWF9jizVSwzyr8S2gG-42" value="LKR #,####.##" style="text;html=1;strokeColor=none;fillColor=none;align=right;verticalAlign=middle;whiteSpace=wrap;rounded=0;spacingRight=4;" vertex="1" parent="Pg-9uKjvfXgRgvPHWc_q-1">
          <mxGeometry x="330" y="605" width="120" height="30" as="geometry" />
        </mxCell>
        <mxCell id="EKoWF9jizVSwzyr8S2gG-43" value="DATE" style="text;html=1;strokeColor=none;fillColor=none;align=left;verticalAlign=middle;whiteSpace=wrap;rounded=0;spacingRight=4;" vertex="1" parent="Pg-9uKjvfXgRgvPHWc_q-1">
          <mxGeometry x="45" y="600" width="85" height="20" as="geometry" />
        </mxCell>
        <mxCell id="EKoWF9jizVSwzyr8S2gG-44" value="VENDOR" style="text;html=1;strokeColor=none;fillColor=none;align=left;verticalAlign=middle;whiteSpace=wrap;rounded=0;spacingRight=4;" vertex="1" parent="Pg-9uKjvfXgRgvPHWc_q-1">
          <mxGeometry x="45" y="620" width="270" height="20" as="geometry" />
        </mxCell>
        <mxCell id="EKoWF9jizVSwzyr8S2gG-45" value="CATEGORY" style="text;html=1;strokeColor=none;fillColor=none;align=left;verticalAlign=middle;whiteSpace=wrap;rounded=0;spacingRight=4;" vertex="1" parent="Pg-9uKjvfXgRgvPHWc_q-1">
          <mxGeometry x="137.5" y="600" width="85" height="20" as="geometry" />
        </mxCell>
        <mxCell id="EKoWF9jizVSwzyr8S2gG-46" value="" style="rounded=1;whiteSpace=wrap;html=1;" vertex="1" parent="Pg-9uKjvfXgRgvPHWc_q-1">
          <mxGeometry x="40" y="660" width="420" height="60" as="geometry" />
        </mxCell>
        <mxCell id="EKoWF9jizVSwzyr8S2gG-47" value="LKR #,####.##" style="text;html=1;strokeColor=none;fillColor=none;align=right;verticalAlign=middle;whiteSpace=wrap;rounded=0;spacingRight=4;" vertex="1" parent="Pg-9uKjvfXgRgvPHWc_q-1">
          <mxGeometry x="330" y="675" width="120" height="30" as="geometry" />
        </mxCell>
        <mxCell id="EKoWF9jizVSwzyr8S2gG-48" value="DATE" style="text;html=1;strokeColor=none;fillColor=none;align=left;verticalAlign=middle;whiteSpace=wrap;rounded=0;spacingRight=4;" vertex="1" parent="Pg-9uKjvfXgRgvPHWc_q-1">
          <mxGeometry x="45" y="670" width="85" height="20" as="geometry" />
        </mxCell>
        <mxCell id="EKoWF9jizVSwzyr8S2gG-49" value="VENDOR" style="text;html=1;strokeColor=none;fillColor=none;align=left;verticalAlign=middle;whiteSpace=wrap;rounded=0;spacingRight=4;" vertex="1" parent="Pg-9uKjvfXgRgvPHWc_q-1">
          <mxGeometry x="45" y="690" width="270" height="20" as="geometry" />
        </mxCell>
        <mxCell id="EKoWF9jizVSwzyr8S2gG-50" value="CATEGORY" style="text;html=1;strokeColor=none;fillColor=none;align=left;verticalAlign=middle;whiteSpace=wrap;rounded=0;spacingRight=4;" vertex="1" parent="Pg-9uKjvfXgRgvPHWc_q-1">
          <mxGeometry x="137.5" y="670" width="85" height="20" as="geometry" />
        </mxCell>
        <mxCell id="EKoWF9jizVSwzyr8S2gG-51" value="" style="rounded=1;whiteSpace=wrap;html=1;" vertex="1" parent="Pg-9uKjvfXgRgvPHWc_q-1">
          <mxGeometry x="40" y="730" width="420" height="60" as="geometry" />
        </mxCell>
        <mxCell id="EKoWF9jizVSwzyr8S2gG-52" value="LKR #,####.##" style="text;html=1;strokeColor=none;fillColor=none;align=right;verticalAlign=middle;whiteSpace=wrap;rounded=0;spacingRight=4;" vertex="1" parent="Pg-9uKjvfXgRgvPHWc_q-1">
          <mxGeometry x="330" y="745" width="120" height="30" as="geometry" />
        </mxCell>
        <mxCell id="EKoWF9jizVSwzyr8S2gG-53" value="DATE" style="text;html=1;strokeColor=none;fillColor=none;align=left;verticalAlign=middle;whiteSpace=wrap;rounded=0;spacingRight=4;" vertex="1" parent="Pg-9uKjvfXgRgvPHWc_q-1">
          <mxGeometry x="45" y="740" width="85" height="20" as="geometry" />
        </mxCell>
        <mxCell id="EKoWF9jizVSwzyr8S2gG-54" value="VENDOR" style="text;html=1;strokeColor=none;fillColor=none;align=left;verticalAlign=middle;whiteSpace=wrap;rounded=0;spacingRight=4;" vertex="1" parent="Pg-9uKjvfXgRgvPHWc_q-1">
          <mxGeometry x="45" y="760" width="270" height="20" as="geometry" />
        </mxCell>
        <mxCell id="EKoWF9jizVSwzyr8S2gG-55" value="CATEGORY" style="text;html=1;strokeColor=none;fillColor=none;align=left;verticalAlign=middle;whiteSpace=wrap;rounded=0;spacingRight=4;" vertex="1" parent="Pg-9uKjvfXgRgvPHWc_q-1">
          <mxGeometry x="137.5" y="740" width="85" height="20" as="geometry" />
        </mxCell>
        <mxCell id="EKoWF9jizVSwzyr8S2gG-56" value="" style="rounded=1;whiteSpace=wrap;html=1;" vertex="1" parent="1">
          <mxGeometry x="80" y="840" width="420" height="60" as="geometry" />
        </mxCell>
        <mxCell id="EKoWF9jizVSwzyr8S2gG-57" value="LKR #,####.##" style="text;html=1;strokeColor=none;fillColor=none;align=right;verticalAlign=middle;whiteSpace=wrap;rounded=0;spacingRight=4;" vertex="1" parent="1">
          <mxGeometry x="370" y="855" width="120" height="30" as="geometry" />
        </mxCell>
        <mxCell id="EKoWF9jizVSwzyr8S2gG-58" value="DATE" style="text;html=1;strokeColor=none;fillColor=none;align=left;verticalAlign=middle;whiteSpace=wrap;rounded=0;spacingRight=4;" vertex="1" parent="1">
          <mxGeometry x="85" y="850" width="85" height="20" as="geometry" />
        </mxCell>
        <mxCell id="EKoWF9jizVSwzyr8S2gG-59" value="VENDOR" style="text;html=1;strokeColor=none;fillColor=none;align=left;verticalAlign=middle;whiteSpace=wrap;rounded=0;spacingRight=4;" vertex="1" parent="1">
          <mxGeometry x="85" y="870" width="270" height="20" as="geometry" />
        </mxCell>
        <mxCell id="EKoWF9jizVSwzyr8S2gG-60" value="CATEGORY" style="text;html=1;strokeColor=none;fillColor=none;align=left;verticalAlign=middle;whiteSpace=wrap;rounded=0;spacingRight=4;" vertex="1" parent="1">
          <mxGeometry x="177.5" y="850" width="85" height="20" as="geometry" />
        </mxCell>
        <mxCell id="Pg-9uKjvfXgRgvPHWc_q-4" value="MENU" style="whiteSpace=wrap;html=1;" vertex="1" parent="1">
          <mxGeometry x="40" y="880" width="500" height="60" as="geometry" />
        </mxCell>
        <mxCell id="CveTf1i_6KMvKR1EMoe4-1" value="" style="ellipse;whiteSpace=wrap;html=1;aspect=fixed;labelBackgroundColor=none;" vertex="1" parent="1">
          <mxGeometry x="270" y="890" width="40" height="40" as="geometry" />
        </mxCell>
        <mxCell id="cPgKxQvLv9jaFr43sHE6-1" value="+" style="ellipse;whiteSpace=wrap;html=1;aspect=fixed;fillColor=#d5e8d4;strokeColor=#82b366;" vertex="1" parent="1">
          <mxGeometry x="470" y="810" width="50" height="50" as="geometry" />
        </mxCell>
        <mxCell id="TvHq6pOWTnKj52OmkfGJ-1" value="" style="swimlane;startSize=0;" vertex="1" parent="1">
          <mxGeometry x="560" y="40" width="500" height="900" as="geometry">
            <mxRectangle x="40" y="40" width="500" height="900" as="alternateBounds" />
          </mxGeometry>
        </mxCell>
        <mxCell id="TvHq6pOWTnKj52OmkfGJ-59" value="" style="rounded=1;whiteSpace=wrap;html=1;" vertex="1" parent="TvHq6pOWTnKj52OmkfGJ-1">
          <mxGeometry x="40" y="800" width="420" height="60" as="geometry" />
        </mxCell>
        <mxCell id="TvHq6pOWTnKj52OmkfGJ-60" value="LKR #,####.##" style="text;html=1;strokeColor=none;fillColor=none;align=right;verticalAlign=middle;whiteSpace=wrap;rounded=0;spacingRight=4;" vertex="1" parent="TvHq6pOWTnKj52OmkfGJ-1">
          <mxGeometry x="330" y="815" width="120" height="30" as="geometry" />
        </mxCell>
        <mxCell id="TvHq6pOWTnKj52OmkfGJ-61" value="DATE" style="text;html=1;strokeColor=none;fillColor=none;align=left;verticalAlign=middle;whiteSpace=wrap;rounded=0;spacingRight=4;" vertex="1" parent="TvHq6pOWTnKj52OmkfGJ-1">
          <mxGeometry x="45" y="810" width="85" height="20" as="geometry" />
        </mxCell>
        <mxCell id="TvHq6pOWTnKj52OmkfGJ-62" value="VENDOR" style="text;html=1;strokeColor=none;fillColor=none;align=left;verticalAlign=middle;whiteSpace=wrap;rounded=0;spacingRight=4;" vertex="1" parent="TvHq6pOWTnKj52OmkfGJ-1">
          <mxGeometry x="45" y="830" width="270" height="20" as="geometry" />
        </mxCell>
        <mxCell id="TvHq6pOWTnKj52OmkfGJ-63" value="CATEGORY" style="text;html=1;strokeColor=none;fillColor=none;align=left;verticalAlign=middle;whiteSpace=wrap;rounded=0;spacingRight=4;" vertex="1" parent="TvHq6pOWTnKj52OmkfGJ-1">
          <mxGeometry x="137.5" y="810" width="85" height="20" as="geometry" />
        </mxCell>
        <mxCell id="TvHq6pOWTnKj52OmkfGJ-4" value="" style="rounded=1;whiteSpace=wrap;html=1;" vertex="1" parent="TvHq6pOWTnKj52OmkfGJ-1">
          <mxGeometry x="40" y="30" width="420" height="60" as="geometry" />
        </mxCell>
        <mxCell id="TvHq6pOWTnKj52OmkfGJ-5" value="LKR #,####.##" style="text;html=1;strokeColor=none;fillColor=none;align=right;verticalAlign=middle;whiteSpace=wrap;rounded=0;spacingRight=4;" vertex="1" parent="TvHq6pOWTnKj52OmkfGJ-1">
          <mxGeometry x="330" y="45" width="120" height="30" as="geometry" />
        </mxCell>
        <mxCell id="TvHq6pOWTnKj52OmkfGJ-6" value="DATE" style="text;html=1;strokeColor=none;fillColor=none;align=left;verticalAlign=middle;whiteSpace=wrap;rounded=0;spacingRight=4;" vertex="1" parent="TvHq6pOWTnKj52OmkfGJ-1">
          <mxGeometry x="45" y="40" width="85" height="20" as="geometry" />
        </mxCell>
        <mxCell id="TvHq6pOWTnKj52OmkfGJ-7" value="VENDOR" style="text;html=1;strokeColor=none;fillColor=none;align=left;verticalAlign=middle;whiteSpace=wrap;rounded=0;spacingRight=4;" vertex="1" parent="TvHq6pOWTnKj52OmkfGJ-1">
          <mxGeometry x="45" y="60" width="270" height="20" as="geometry" />
        </mxCell>
        <mxCell id="TvHq6pOWTnKj52OmkfGJ-8" value="CATEGORY" style="text;html=1;strokeColor=none;fillColor=none;align=left;verticalAlign=middle;whiteSpace=wrap;rounded=0;spacingRight=4;" vertex="1" parent="TvHq6pOWTnKj52OmkfGJ-1">
          <mxGeometry x="137.5" y="40" width="85" height="20" as="geometry" />
        </mxCell>
        <mxCell id="TvHq6pOWTnKj52OmkfGJ-9" value="" style="rounded=1;whiteSpace=wrap;html=1;" vertex="1" parent="TvHq6pOWTnKj52OmkfGJ-1">
          <mxGeometry x="40" y="100" width="420" height="60" as="geometry" />
        </mxCell>
        <mxCell id="TvHq6pOWTnKj52OmkfGJ-10" value="LKR #,####.##" style="text;html=1;strokeColor=none;fillColor=none;align=right;verticalAlign=middle;whiteSpace=wrap;rounded=0;spacingRight=4;" vertex="1" parent="TvHq6pOWTnKj52OmkfGJ-1">
          <mxGeometry x="330" y="115" width="120" height="30" as="geometry" />
        </mxCell>
        <mxCell id="TvHq6pOWTnKj52OmkfGJ-11" value="DATE" style="text;html=1;strokeColor=none;fillColor=none;align=left;verticalAlign=middle;whiteSpace=wrap;rounded=0;spacingRight=4;" vertex="1" parent="TvHq6pOWTnKj52OmkfGJ-1">
          <mxGeometry x="45" y="110" width="85" height="20" as="geometry" />
        </mxCell>
        <mxCell id="TvHq6pOWTnKj52OmkfGJ-12" value="VENDOR" style="text;html=1;strokeColor=none;fillColor=none;align=left;verticalAlign=middle;whiteSpace=wrap;rounded=0;spacingRight=4;" vertex="1" parent="TvHq6pOWTnKj52OmkfGJ-1">
          <mxGeometry x="45" y="130" width="270" height="20" as="geometry" />
        </mxCell>
        <mxCell id="TvHq6pOWTnKj52OmkfGJ-13" value="CATEGORY" style="text;html=1;strokeColor=none;fillColor=none;align=left;verticalAlign=middle;whiteSpace=wrap;rounded=0;spacingRight=4;" vertex="1" parent="TvHq6pOWTnKj52OmkfGJ-1">
          <mxGeometry x="137.5" y="110" width="85" height="20" as="geometry" />
        </mxCell>
        <mxCell id="TvHq6pOWTnKj52OmkfGJ-14" value="" style="rounded=1;whiteSpace=wrap;html=1;" vertex="1" parent="TvHq6pOWTnKj52OmkfGJ-1">
          <mxGeometry x="40" y="170" width="420" height="60" as="geometry" />
        </mxCell>
        <mxCell id="TvHq6pOWTnKj52OmkfGJ-15" value="LKR #,####.##" style="text;html=1;strokeColor=none;fillColor=none;align=right;verticalAlign=middle;whiteSpace=wrap;rounded=0;spacingRight=4;" vertex="1" parent="TvHq6pOWTnKj52OmkfGJ-1">
          <mxGeometry x="330" y="185" width="120" height="30" as="geometry" />
        </mxCell>
        <mxCell id="TvHq6pOWTnKj52OmkfGJ-16" value="DATE" style="text;html=1;strokeColor=none;fillColor=none;align=left;verticalAlign=middle;whiteSpace=wrap;rounded=0;spacingRight=4;" vertex="1" parent="TvHq6pOWTnKj52OmkfGJ-1">
          <mxGeometry x="45" y="180" width="85" height="20" as="geometry" />
        </mxCell>
        <mxCell id="TvHq6pOWTnKj52OmkfGJ-17" value="VENDOR" style="text;html=1;strokeColor=none;fillColor=none;align=left;verticalAlign=middle;whiteSpace=wrap;rounded=0;spacingRight=4;" vertex="1" parent="TvHq6pOWTnKj52OmkfGJ-1">
          <mxGeometry x="45" y="200" width="270" height="20" as="geometry" />
        </mxCell>
        <mxCell id="TvHq6pOWTnKj52OmkfGJ-18" value="CATEGORY" style="text;html=1;strokeColor=none;fillColor=none;align=left;verticalAlign=middle;whiteSpace=wrap;rounded=0;spacingRight=4;" vertex="1" parent="TvHq6pOWTnKj52OmkfGJ-1">
          <mxGeometry x="137.5" y="180" width="85" height="20" as="geometry" />
        </mxCell>
        <mxCell id="TvHq6pOWTnKj52OmkfGJ-19" value="" style="rounded=1;whiteSpace=wrap;html=1;" vertex="1" parent="TvHq6pOWTnKj52OmkfGJ-1">
          <mxGeometry x="40" y="240" width="420" height="60" as="geometry" />
        </mxCell>
        <mxCell id="TvHq6pOWTnKj52OmkfGJ-20" value="LKR #,####.##" style="text;html=1;strokeColor=none;fillColor=none;align=right;verticalAlign=middle;whiteSpace=wrap;rounded=0;spacingRight=4;" vertex="1" parent="TvHq6pOWTnKj52OmkfGJ-1">
          <mxGeometry x="330" y="255" width="120" height="30" as="geometry" />
        </mxCell>
        <mxCell id="TvHq6pOWTnKj52OmkfGJ-21" value="DATE" style="text;html=1;strokeColor=none;fillColor=none;align=left;verticalAlign=middle;whiteSpace=wrap;rounded=0;spacingRight=4;" vertex="1" parent="TvHq6pOWTnKj52OmkfGJ-1">
          <mxGeometry x="45" y="250" width="85" height="20" as="geometry" />
        </mxCell>
        <mxCell id="TvHq6pOWTnKj52OmkfGJ-22" value="VENDOR" style="text;html=1;strokeColor=none;fillColor=none;align=left;verticalAlign=middle;whiteSpace=wrap;rounded=0;spacingRight=4;" vertex="1" parent="TvHq6pOWTnKj52OmkfGJ-1">
          <mxGeometry x="45" y="270" width="270" height="20" as="geometry" />
        </mxCell>
        <mxCell id="TvHq6pOWTnKj52OmkfGJ-23" value="CATEGORY" style="text;html=1;strokeColor=none;fillColor=none;align=left;verticalAlign=middle;whiteSpace=wrap;rounded=0;spacingRight=4;" vertex="1" parent="TvHq6pOWTnKj52OmkfGJ-1">
          <mxGeometry x="137.5" y="250" width="85" height="20" as="geometry" />
        </mxCell>
        <mxCell id="TvHq6pOWTnKj52OmkfGJ-24" value="" style="rounded=1;whiteSpace=wrap;html=1;" vertex="1" parent="TvHq6pOWTnKj52OmkfGJ-1">
          <mxGeometry x="40" y="310" width="420" height="60" as="geometry" />
        </mxCell>
        <mxCell id="TvHq6pOWTnKj52OmkfGJ-25" value="LKR #,####.##" style="text;html=1;strokeColor=none;fillColor=none;align=right;verticalAlign=middle;whiteSpace=wrap;rounded=0;spacingRight=4;" vertex="1" parent="TvHq6pOWTnKj52OmkfGJ-1">
          <mxGeometry x="330" y="325" width="120" height="30" as="geometry" />
        </mxCell>
        <mxCell id="TvHq6pOWTnKj52OmkfGJ-26" value="DATE" style="text;html=1;strokeColor=none;fillColor=none;align=left;verticalAlign=middle;whiteSpace=wrap;rounded=0;spacingRight=4;" vertex="1" parent="TvHq6pOWTnKj52OmkfGJ-1">
          <mxGeometry x="45" y="320" width="85" height="20" as="geometry" />
        </mxCell>
        <mxCell id="TvHq6pOWTnKj52OmkfGJ-27" value="VENDOR" style="text;html=1;strokeColor=none;fillColor=none;align=left;verticalAlign=middle;whiteSpace=wrap;rounded=0;spacingRight=4;" vertex="1" parent="TvHq6pOWTnKj52OmkfGJ-1">
          <mxGeometry x="45" y="340" width="270" height="20" as="geometry" />
        </mxCell>
        <mxCell id="TvHq6pOWTnKj52OmkfGJ-28" value="CATEGORY" style="text;html=1;strokeColor=none;fillColor=none;align=left;verticalAlign=middle;whiteSpace=wrap;rounded=0;spacingRight=4;" vertex="1" parent="TvHq6pOWTnKj52OmkfGJ-1">
          <mxGeometry x="137.5" y="320" width="85" height="20" as="geometry" />
        </mxCell>
        <mxCell id="TvHq6pOWTnKj52OmkfGJ-29" value="" style="rounded=1;whiteSpace=wrap;html=1;" vertex="1" parent="TvHq6pOWTnKj52OmkfGJ-1">
          <mxGeometry x="40" y="380" width="420" height="60" as="geometry" />
        </mxCell>
        <mxCell id="TvHq6pOWTnKj52OmkfGJ-30" value="LKR #,####.##" style="text;html=1;strokeColor=none;fillColor=none;align=right;verticalAlign=middle;whiteSpace=wrap;rounded=0;spacingRight=4;" vertex="1" parent="TvHq6pOWTnKj52OmkfGJ-1">
          <mxGeometry x="330" y="395" width="120" height="30" as="geometry" />
        </mxCell>
        <mxCell id="TvHq6pOWTnKj52OmkfGJ-31" value="DATE" style="text;html=1;strokeColor=none;fillColor=none;align=left;verticalAlign=middle;whiteSpace=wrap;rounded=0;spacingRight=4;" vertex="1" parent="TvHq6pOWTnKj52OmkfGJ-1">
          <mxGeometry x="45" y="390" width="85" height="20" as="geometry" />
        </mxCell>
        <mxCell id="TvHq6pOWTnKj52OmkfGJ-32" value="VENDOR" style="text;html=1;strokeColor=none;fillColor=none;align=left;verticalAlign=middle;whiteSpace=wrap;rounded=0;spacingRight=4;" vertex="1" parent="TvHq6pOWTnKj52OmkfGJ-1">
          <mxGeometry x="45" y="410" width="270" height="20" as="geometry" />
        </mxCell>
        <mxCell id="TvHq6pOWTnKj52OmkfGJ-33" value="CATEGORY" style="text;html=1;strokeColor=none;fillColor=none;align=left;verticalAlign=middle;whiteSpace=wrap;rounded=0;spacingRight=4;" vertex="1" parent="TvHq6pOWTnKj52OmkfGJ-1">
          <mxGeometry x="137.5" y="390" width="85" height="20" as="geometry" />
        </mxCell>
        <mxCell id="TvHq6pOWTnKj52OmkfGJ-34" value="" style="rounded=1;whiteSpace=wrap;html=1;" vertex="1" parent="TvHq6pOWTnKj52OmkfGJ-1">
          <mxGeometry x="40" y="450" width="420" height="60" as="geometry" />
        </mxCell>
        <mxCell id="TvHq6pOWTnKj52OmkfGJ-35" value="LKR #,####.##" style="text;html=1;strokeColor=none;fillColor=none;align=right;verticalAlign=middle;whiteSpace=wrap;rounded=0;spacingRight=4;" vertex="1" parent="TvHq6pOWTnKj52OmkfGJ-1">
          <mxGeometry x="330" y="465" width="120" height="30" as="geometry" />
        </mxCell>
        <mxCell id="TvHq6pOWTnKj52OmkfGJ-36" value="DATE" style="text;html=1;strokeColor=none;fillColor=none;align=left;verticalAlign=middle;whiteSpace=wrap;rounded=0;spacingRight=4;" vertex="1" parent="TvHq6pOWTnKj52OmkfGJ-1">
          <mxGeometry x="45" y="460" width="85" height="20" as="geometry" />
        </mxCell>
        <mxCell id="TvHq6pOWTnKj52OmkfGJ-37" value="VENDOR" style="text;html=1;strokeColor=none;fillColor=none;align=left;verticalAlign=middle;whiteSpace=wrap;rounded=0;spacingRight=4;" vertex="1" parent="TvHq6pOWTnKj52OmkfGJ-1">
          <mxGeometry x="45" y="480" width="270" height="20" as="geometry" />
        </mxCell>
        <mxCell id="TvHq6pOWTnKj52OmkfGJ-38" value="CATEGORY" style="text;html=1;strokeColor=none;fillColor=none;align=left;verticalAlign=middle;whiteSpace=wrap;rounded=0;spacingRight=4;" vertex="1" parent="TvHq6pOWTnKj52OmkfGJ-1">
          <mxGeometry x="137.5" y="460" width="85" height="20" as="geometry" />
        </mxCell>
        <mxCell id="TvHq6pOWTnKj52OmkfGJ-39" value="" style="rounded=1;whiteSpace=wrap;html=1;" vertex="1" parent="TvHq6pOWTnKj52OmkfGJ-1">
          <mxGeometry x="40" y="520" width="420" height="60" as="geometry" />
        </mxCell>
        <mxCell id="TvHq6pOWTnKj52OmkfGJ-40" value="LKR #,####.##" style="text;html=1;strokeColor=none;fillColor=none;align=right;verticalAlign=middle;whiteSpace=wrap;rounded=0;spacingRight=4;" vertex="1" parent="TvHq6pOWTnKj52OmkfGJ-1">
          <mxGeometry x="330" y="535" width="120" height="30" as="geometry" />
        </mxCell>
        <mxCell id="TvHq6pOWTnKj52OmkfGJ-41" value="DATE" style="text;html=1;strokeColor=none;fillColor=none;align=left;verticalAlign=middle;whiteSpace=wrap;rounded=0;spacingRight=4;" vertex="1" parent="TvHq6pOWTnKj52OmkfGJ-1">
          <mxGeometry x="45" y="530" width="85" height="20" as="geometry" />
        </mxCell>
        <mxCell id="TvHq6pOWTnKj52OmkfGJ-42" value="VENDOR" style="text;html=1;strokeColor=none;fillColor=none;align=left;verticalAlign=middle;whiteSpace=wrap;rounded=0;spacingRight=4;" vertex="1" parent="TvHq6pOWTnKj52OmkfGJ-1">
          <mxGeometry x="45" y="550" width="270" height="20" as="geometry" />
        </mxCell>
        <mxCell id="TvHq6pOWTnKj52OmkfGJ-43" value="CATEGORY" style="text;html=1;strokeColor=none;fillColor=none;align=left;verticalAlign=middle;whiteSpace=wrap;rounded=0;spacingRight=4;" vertex="1" parent="TvHq6pOWTnKj52OmkfGJ-1">
          <mxGeometry x="137.5" y="530" width="85" height="20" as="geometry" />
        </mxCell>
        <mxCell id="TvHq6pOWTnKj52OmkfGJ-44" value="" style="rounded=1;whiteSpace=wrap;html=1;" vertex="1" parent="TvHq6pOWTnKj52OmkfGJ-1">
          <mxGeometry x="40" y="590" width="420" height="60" as="geometry" />
        </mxCell>
        <mxCell id="TvHq6pOWTnKj52OmkfGJ-45" value="LKR #,####.##" style="text;html=1;strokeColor=none;fillColor=none;align=right;verticalAlign=middle;whiteSpace=wrap;rounded=0;spacingRight=4;" vertex="1" parent="TvHq6pOWTnKj52OmkfGJ-1">
          <mxGeometry x="330" y="605" width="120" height="30" as="geometry" />
        </mxCell>
        <mxCell id="TvHq6pOWTnKj52OmkfGJ-46" value="DATE" style="text;html=1;strokeColor=none;fillColor=none;align=left;verticalAlign=middle;whiteSpace=wrap;rounded=0;spacingRight=4;" vertex="1" parent="TvHq6pOWTnKj52OmkfGJ-1">
          <mxGeometry x="45" y="600" width="85" height="20" as="geometry" />
        </mxCell>
        <mxCell id="TvHq6pOWTnKj52OmkfGJ-47" value="VENDOR" style="text;html=1;strokeColor=none;fillColor=none;align=left;verticalAlign=middle;whiteSpace=wrap;rounded=0;spacingRight=4;" vertex="1" parent="TvHq6pOWTnKj52OmkfGJ-1">
          <mxGeometry x="45" y="620" width="270" height="20" as="geometry" />
        </mxCell>
        <mxCell id="TvHq6pOWTnKj52OmkfGJ-48" value="CATEGORY" style="text;html=1;strokeColor=none;fillColor=none;align=left;verticalAlign=middle;whiteSpace=wrap;rounded=0;spacingRight=4;" vertex="1" parent="TvHq6pOWTnKj52OmkfGJ-1">
          <mxGeometry x="137.5" y="600" width="85" height="20" as="geometry" />
        </mxCell>
        <mxCell id="TvHq6pOWTnKj52OmkfGJ-49" value="" style="rounded=1;whiteSpace=wrap;html=1;" vertex="1" parent="TvHq6pOWTnKj52OmkfGJ-1">
          <mxGeometry x="40" y="660" width="420" height="60" as="geometry" />
        </mxCell>
        <mxCell id="TvHq6pOWTnKj52OmkfGJ-50" value="LKR #,####.##" style="text;html=1;strokeColor=none;fillColor=none;align=right;verticalAlign=middle;whiteSpace=wrap;rounded=0;spacingRight=4;" vertex="1" parent="TvHq6pOWTnKj52OmkfGJ-1">
          <mxGeometry x="330" y="675" width="120" height="30" as="geometry" />
        </mxCell>
        <mxCell id="TvHq6pOWTnKj52OmkfGJ-51" value="DATE" style="text;html=1;strokeColor=none;fillColor=none;align=left;verticalAlign=middle;whiteSpace=wrap;rounded=0;spacingRight=4;" vertex="1" parent="TvHq6pOWTnKj52OmkfGJ-1">
          <mxGeometry x="45" y="670" width="85" height="20" as="geometry" />
        </mxCell>
        <mxCell id="TvHq6pOWTnKj52OmkfGJ-52" value="VENDOR" style="text;html=1;strokeColor=none;fillColor=none;align=left;verticalAlign=middle;whiteSpace=wrap;rounded=0;spacingRight=4;" vertex="1" parent="TvHq6pOWTnKj52OmkfGJ-1">
          <mxGeometry x="45" y="690" width="270" height="20" as="geometry" />
        </mxCell>
        <mxCell id="TvHq6pOWTnKj52OmkfGJ-53" value="CATEGORY" style="text;html=1;strokeColor=none;fillColor=none;align=left;verticalAlign=middle;whiteSpace=wrap;rounded=0;spacingRight=4;" vertex="1" parent="TvHq6pOWTnKj52OmkfGJ-1">
          <mxGeometry x="137.5" y="670" width="85" height="20" as="geometry" />
        </mxCell>
        <mxCell id="TvHq6pOWTnKj52OmkfGJ-54" value="" style="rounded=1;whiteSpace=wrap;html=1;" vertex="1" parent="TvHq6pOWTnKj52OmkfGJ-1">
          <mxGeometry x="40" y="730" width="420" height="60" as="geometry" />
        </mxCell>
        <mxCell id="TvHq6pOWTnKj52OmkfGJ-55" value="LKR #,####.##" style="text;html=1;strokeColor=none;fillColor=none;align=right;verticalAlign=middle;whiteSpace=wrap;rounded=0;spacingRight=4;" vertex="1" parent="TvHq6pOWTnKj52OmkfGJ-1">
          <mxGeometry x="330" y="745" width="120" height="30" as="geometry" />
        </mxCell>
        <mxCell id="TvHq6pOWTnKj52OmkfGJ-56" value="DATE" style="text;html=1;strokeColor=none;fillColor=none;align=left;verticalAlign=middle;whiteSpace=wrap;rounded=0;spacingRight=4;" vertex="1" parent="TvHq6pOWTnKj52OmkfGJ-1">
          <mxGeometry x="45" y="740" width="85" height="20" as="geometry" />
        </mxCell>
        <mxCell id="TvHq6pOWTnKj52OmkfGJ-57" value="VENDOR" style="text;html=1;strokeColor=none;fillColor=none;align=left;verticalAlign=middle;whiteSpace=wrap;rounded=0;spacingRight=4;" vertex="1" parent="TvHq6pOWTnKj52OmkfGJ-1">
          <mxGeometry x="45" y="760" width="270" height="20" as="geometry" />
        </mxCell>
        <mxCell id="TvHq6pOWTnKj52OmkfGJ-58" value="CATEGORY" style="text;html=1;strokeColor=none;fillColor=none;align=left;verticalAlign=middle;whiteSpace=wrap;rounded=0;spacingRight=4;" vertex="1" parent="TvHq6pOWTnKj52OmkfGJ-1">
          <mxGeometry x="137.5" y="740" width="85" height="20" as="geometry" />
        </mxCell>
        <mxCell id="TvHq6pOWTnKj52OmkfGJ-69" value="" style="rounded=0;whiteSpace=wrap;html=1;" vertex="1" parent="TvHq6pOWTnKj52OmkfGJ-1">
          <mxGeometry x="18.75" y="110" width="462.5" height="530" as="geometry" />
        </mxCell>
        <mxCell id="TvHq6pOWTnKj52OmkfGJ-70" value="ADD TRANSACTION" style="text;html=1;strokeColor=none;fillColor=none;align=center;verticalAlign=middle;whiteSpace=wrap;rounded=0;fontSize=18;" vertex="1" parent="TvHq6pOWTnKj52OmkfGJ-1">
          <mxGeometry x="145" y="140" width="230" height="30" as="geometry" />
        </mxCell>
        <mxCell id="TvHq6pOWTnKj52OmkfGJ-71" value="Income / Expense" style="rounded=0;whiteSpace=wrap;html=1;" vertex="1" parent="TvHq6pOWTnKj52OmkfGJ-1">
          <mxGeometry x="200" y="270" width="230" height="40" as="geometry" />
        </mxCell>
        <mxCell id="TvHq6pOWTnKj52OmkfGJ-72" value="Category" style="rounded=0;whiteSpace=wrap;html=1;" vertex="1" parent="TvHq6pOWTnKj52OmkfGJ-1">
          <mxGeometry x="200" y="320" width="230" height="40" as="geometry" />
        </mxCell>
        <mxCell id="TvHq6pOWTnKj52OmkfGJ-73" value="Vendor" style="rounded=0;whiteSpace=wrap;html=1;" vertex="1" parent="TvHq6pOWTnKj52OmkfGJ-1">
          <mxGeometry x="200" y="370" width="230" height="40" as="geometry" />
        </mxCell>
        <mxCell id="TvHq6pOWTnKj52OmkfGJ-74" value="LKR" style="rounded=0;whiteSpace=wrap;html=1;" vertex="1" parent="TvHq6pOWTnKj52OmkfGJ-1">
          <mxGeometry x="200" y="420" width="230" height="40" as="geometry" />
        </mxCell>
        <mxCell id="TvHq6pOWTnKj52OmkfGJ-75" value="Transaction Type" style="text;html=1;strokeColor=none;fillColor=none;align=left;verticalAlign=middle;whiteSpace=wrap;rounded=0;" vertex="1" parent="TvHq6pOWTnKj52OmkfGJ-1">
          <mxGeometry x="60" y="285" width="110" height="30" as="geometry" />
        </mxCell>
        <mxCell id="TvHq6pOWTnKj52OmkfGJ-76" value="Category" style="text;html=1;strokeColor=none;fillColor=none;align=left;verticalAlign=middle;whiteSpace=wrap;rounded=0;" vertex="1" parent="TvHq6pOWTnKj52OmkfGJ-1">
          <mxGeometry x="60" y="330" width="110" height="30" as="geometry" />
        </mxCell>
        <mxCell id="TvHq6pOWTnKj52OmkfGJ-77" value="Vendor" style="text;html=1;strokeColor=none;fillColor=none;align=left;verticalAlign=middle;whiteSpace=wrap;rounded=0;" vertex="1" parent="TvHq6pOWTnKj52OmkfGJ-1">
          <mxGeometry x="60" y="380" width="110" height="30" as="geometry" />
        </mxCell>
        <mxCell id="TvHq6pOWTnKj52OmkfGJ-78" value="Currency" style="text;html=1;strokeColor=none;fillColor=none;align=left;verticalAlign=middle;whiteSpace=wrap;rounded=0;" vertex="1" parent="TvHq6pOWTnKj52OmkfGJ-1">
          <mxGeometry x="60" y="430" width="110" height="30" as="geometry" />
        </mxCell>
        <mxCell id="TvHq6pOWTnKj52OmkfGJ-79" value="Amount" style="rounded=0;whiteSpace=wrap;html=1;" vertex="1" parent="TvHq6pOWTnKj52OmkfGJ-1">
          <mxGeometry x="200" y="470" width="230" height="40" as="geometry" />
        </mxCell>
        <mxCell id="TvHq6pOWTnKj52OmkfGJ-80" value="Amount" style="text;html=1;strokeColor=none;fillColor=none;align=left;verticalAlign=middle;whiteSpace=wrap;rounded=0;" vertex="1" parent="TvHq6pOWTnKj52OmkfGJ-1">
          <mxGeometry x="60" y="480" width="110" height="30" as="geometry" />
        </mxCell>
        <mxCell id="TvHq6pOWTnKj52OmkfGJ-81" value="ADD" style="rounded=0;whiteSpace=wrap;html=1;" vertex="1" parent="TvHq6pOWTnKj52OmkfGJ-1">
          <mxGeometry x="310" y="545" width="120" height="45" as="geometry" />
        </mxCell>
        <mxCell id="TvHq6pOWTnKj52OmkfGJ-64" value="MENU" style="whiteSpace=wrap;html=1;" vertex="1" parent="TvHq6pOWTnKj52OmkfGJ-1">
          <mxGeometry y="840" width="500" height="60" as="geometry" />
        </mxCell>
        <mxCell id="TvHq6pOWTnKj52OmkfGJ-65" value="" style="ellipse;whiteSpace=wrap;html=1;aspect=fixed;labelBackgroundColor=none;" vertex="1" parent="TvHq6pOWTnKj52OmkfGJ-1">
          <mxGeometry x="230" y="850" width="40" height="40" as="geometry" />
        </mxCell>
        <mxCell id="TvHq6pOWTnKj52OmkfGJ-83" value="REMAINING BUDGET: LKR #,###.##" style="text;html=1;strokeColor=none;fillColor=none;align=left;verticalAlign=middle;whiteSpace=wrap;rounded=0;" vertex="1" parent="TvHq6pOWTnKj52OmkfGJ-1">
          <mxGeometry x="60" y="552.5" width="130" height="30" as="geometry" />
        </mxCell>
        <mxCell id="TvHq6pOWTnKj52OmkfGJ-84" value="Date" style="rounded=0;whiteSpace=wrap;html=1;" vertex="1" parent="TvHq6pOWTnKj52OmkfGJ-1">
          <mxGeometry x="200" y="220" width="230" height="40" as="geometry" />
        </mxCell>
        <mxCell id="TvHq6pOWTnKj52OmkfGJ-85" value="Date" style="text;html=1;strokeColor=none;fillColor=none;align=left;verticalAlign=middle;whiteSpace=wrap;rounded=0;" vertex="1" parent="TvHq6pOWTnKj52OmkfGJ-1">
          <mxGeometry x="60" y="235" width="110" height="30" as="geometry" />
        </mxCell>
      </root>
    </mxGraphModel>
  </diagram>
  <diagram id="S4Ve1dYe4h29gKzW1Mp_" name="Investments">
    <mxGraphModel dx="2505" dy="1413" grid="1" gridSize="10" guides="1" tooltips="1" connect="1" arrows="1" fold="1" page="1" pageScale="1" pageWidth="4681" pageHeight="3300" math="0" shadow="0">
      <root>
        <mxCell id="0" />
        <mxCell id="1" parent="0" />
        <mxCell id="Px2I2svebEW9Ob9faY2E-1" value="" style="swimlane;startSize=0;" vertex="1" parent="1">
          <mxGeometry x="40" y="40" width="500" height="900" as="geometry">
            <mxRectangle x="40" y="40" width="500" height="900" as="alternateBounds" />
          </mxGeometry>
        </mxCell>
        <mxCell id="Px2I2svebEW9Ob9faY2E-2" value="" style="rounded=0;whiteSpace=wrap;html=1;" vertex="1" parent="Px2I2svebEW9Ob9faY2E-1">
          <mxGeometry y="840" width="120" height="60" as="geometry" />
        </mxCell>
        <mxCell id="Px2I2svebEW9Ob9faY2E-3" value="" style="rounded=0;whiteSpace=wrap;html=1;" vertex="1" parent="Px2I2svebEW9Ob9faY2E-1">
          <mxGeometry y="840" width="120" height="60" as="geometry" />
        </mxCell>
        <mxCell id="Px2I2svebEW9Ob9faY2E-4" value="MENU" style="whiteSpace=wrap;html=1;" vertex="1" parent="1">
          <mxGeometry x="40" y="880" width="500" height="60" as="geometry" />
        </mxCell>
        <mxCell id="htpkF7GwXzPyeyO8wlhu-1" value="" style="ellipse;whiteSpace=wrap;html=1;aspect=fixed;" vertex="1" parent="1">
          <mxGeometry x="375" y="890" width="40" height="40" as="geometry" />
        </mxCell>
        <mxCell id="XtEW0JF2rrnyZYtG1IXN-1" value="+" style="ellipse;whiteSpace=wrap;html=1;aspect=fixed;fillColor=#d5e8d4;strokeColor=#82b366;" vertex="1" parent="1">
          <mxGeometry x="470" y="810" width="50" height="50" as="geometry" />
        </mxCell>
      </root>
    </mxGraphModel>
  </diagram>
  <diagram id="3lFqMbvCm1M3BaYBjc95" name="Settings">
    <mxGraphModel dx="1822" dy="1027" grid="1" gridSize="10" guides="1" tooltips="1" connect="1" arrows="1" fold="1" page="1" pageScale="1" pageWidth="4681" pageHeight="3300" math="0" shadow="0">
      <root>
        <mxCell id="0" />
        <mxCell id="1" parent="0" />
        <mxCell id="CBMaSXdJ4tl90rZ75MNt-1" value="" style="swimlane;startSize=0;" vertex="1" parent="1">
          <mxGeometry x="40" y="40" width="500" height="900" as="geometry">
            <mxRectangle x="40" y="40" width="500" height="900" as="alternateBounds" />
          </mxGeometry>
        </mxCell>
        <mxCell id="CBMaSXdJ4tl90rZ75MNt-2" value="" style="rounded=0;whiteSpace=wrap;html=1;" vertex="1" parent="CBMaSXdJ4tl90rZ75MNt-1">
          <mxGeometry y="840" width="120" height="60" as="geometry" />
        </mxCell>
        <mxCell id="CBMaSXdJ4tl90rZ75MNt-3" value="" style="rounded=0;whiteSpace=wrap;html=1;" vertex="1" parent="CBMaSXdJ4tl90rZ75MNt-1">
          <mxGeometry y="840" width="120" height="60" as="geometry" />
        </mxCell>
        <mxCell id="CBMaSXdJ4tl90rZ75MNt-4" value="MENU" style="whiteSpace=wrap;html=1;" vertex="1" parent="1">
          <mxGeometry x="40" y="880" width="500" height="60" as="geometry" />
        </mxCell>
        <mxCell id="lUeyl8vc7Qprh-uzoUcu-1" value="" style="ellipse;whiteSpace=wrap;html=1;aspect=fixed;" vertex="1" parent="1">
          <mxGeometry x="480" y="890" width="40" height="40" as="geometry" />
        </mxCell>
      </root>
    </mxGraphModel>
  </diagram>
</mxfile>
